<?xml version="1.0" encoding="UTF-8"?>
<svg id="Layer_2" data-name="Layer 2" xmlns="http://www.w3.org/2000/svg" viewBox="0 0 10.39 10.33">
  <defs>
    <style>
      .cls-1 {
        fill: #f2f2f2;
      }
    </style>
  </defs>
  <g id="Layer_1-2" data-name="Layer 1">
    <g id="wRC6dj.tif">
      <g>
        <path class="cls-1" d="m3.06,8.38c0-.24-.02-.57-.03-.89-.01-.2-.1-.38-.2-.56-.09-.16-.17-.33-.32-.44-.21-.15-.43-.29-.65-.41-.23-.13-.48-.21-.73-.28-.15-.04-.29-.08-.44-.12-.13-.04-.27-.06-.4-.12-.09-.04-.18-.11-.25-.18-.06-.05-.06-.17,0-.23.1-.11.2-.2.31-.3.02-.02.05-.02.07-.03.25-.06.51-.1.76-.16.23-.05.45-.12.68-.18.01,0,.03,0,.04-.01.21-.06.43-.11.63-.18.15-.05.29-.13.44-.19.02,0,.03-.02.05-.02.24-.05.43-.19.64-.3.17-.08.31-.21.47-.31.05-.04.12-.06.17-.1.11-.09.21-.19.31-.29.13-.12.27-.24.4-.37.17-.17.34-.35.5-.54.12-.13.22-.28.32-.43.09-.13.17-.26.26-.39.11-.16.23-.31.34-.46.05-.08.1-.16.15-.25.15-.23.26-.47.53-.59.15-.07.34,0,.39.16.02.07.05.14,0,.22,0,0,0,0,0,0-.07.64-.2,1.28-.17,1.93,0,.13.02.27.02.4,0,.22.11.41.17.62.01.04.05.08.07.11.14.19.27.39.47.51.23.14.46.28.69.4.14.07.3.1.45.15.15.05.29.09.44.13.1.03.19.06.29.09.03,0,.05.02.08.02.14,0,.24.09.33.19.06.07.06.21,0,.28-.12.16-.28.26-.47.31-.14.03-.28.07-.43.1-.04,0-.08.01-.12.02-.13.03-.26.06-.39.09-.07.02-.13.03-.2.05-.09.02-.17.05-.26.07-.02,0-.04.02-.06.02-.2.06-.4.11-.59.17-.15.05-.3.11-.44.17-.16.07-.32.14-.47.21-.07.03-.13.07-.2.11-.12.07-.23.15-.35.22-.12.08-.25.16-.37.26-.34.3-.69.6-.97.96-.08.1-.17.18-.25.28-.09.12-.18.24-.27.36-.17.24-.34.49-.51.74-.11.15-.21.3-.32.46-.06.09-.11.18-.17.27-.03.05-.08.09-.12.12-.05.03-.11.06-.17.08-.04.01-.08.01-.12,0-.19-.03-.29-.17-.26-.37.02-.11.02-.22.04-.33.02-.12.05-.24.07-.36,0-.04.02-.08.03-.12.02-.23.03-.46.05-.77Z"/>
        <path class="cls-1" d="m6.7,8.9c.01-.07.02-.14.03-.21.03-.1.03-.19,0-.28-.05-.15-.23-.29-.39-.3-.08,0-.11-.03-.14-.11-.03-.09,0-.16.02-.24,0-.02.04-.04.07-.05.18-.05.37-.07.53-.15.22-.11.42-.24.56-.46.07-.11.17-.21.26-.31.03-.03.08-.05.12-.07.02,0,.06,0,.08,0,.11.07.17.22.12.35-.06.15-.05.29.04.42.03.04.07.08.12.1.11.05.22.09.33.13.07.03.1.16.06.24-.04.08-.1.12-.18.14-.17.05-.35.09-.51.17-.12.06-.22.16-.33.25-.05.04-.1.09-.13.14-.05.07-.09.14-.14.21-.09.12-.2.21-.35.24-.11.02-.14-.01-.14-.12,0-.03,0-.06,0-.08,0,0,0,0,0,0Z"/>
        <path class="cls-1" d="m2.53,3.31c0-.09.02-.17.03-.26,0-.06,0-.12,0-.18-.02-.18-.15-.27-.3-.32-.1-.03-.19-.07-.25-.17-.05-.09,0-.23.1-.25.17-.05.33-.08.5-.14.09-.03.17-.1.25-.16.13-.09.25-.19.33-.34.06-.12.15-.23.24-.32.04-.04.14-.04.2-.03.09.01.16.19.12.27-.09.19-.06.39.08.52.04.04.09.06.14.08.1.04.2.08.3.12.02,0,.03.02.04.04.05.1,0,.25-.1.31-.02.01-.05.02-.07.03-.13.04-.26.09-.4.12-.14.03-.25.11-.35.2-.11.1-.21.2-.31.31-.05.06-.08.14-.13.2-.08.1-.19.15-.31.18-.06.01-.09-.01-.09-.08,0-.05,0-.1,0-.14,0,0,0,0-.01,0Z"/>
      </g>
    </g>
  </g>
</svg>